<svg width="750" height="1685" viewBox="0 0 750 1685" fill="none" xmlns="http://www.w3.org/2000/svg">
<g clip-path="url(#clip0)">
<rect width="750" height="1685" fill="white"/>
<path d="M750 181H0V1515H750V181Z" fill="white"/>
<path d="M-7 391.5L129.5 543.5" stroke="#1E50A2" stroke-width="2"/>
<path d="M607 873.5L743.5 1025.5" stroke="#1E50A2" stroke-width="2"/>
<path opacity="0.81" d="M600 741C603.866 741 607 737.866 607 734C607 730.134 603.866 727 600 727C596.134 727 593 730.134 593 734C593 737.866 596.134 741 600 741Z" fill="#1E50A2"/>
<path opacity="0.55" d="M743 428C752.941 428 761 419.941 761 410C761 400.059 752.941 392 743 392C733.059 392 725 400.059 725 410C725 419.941 733.059 428 743 428Z" fill="white"/>
<g opacity="0.55">
<path opacity="0.55" d="M181 857C185.971 857 190 852.971 190 848C190 843.029 185.971 839 181 839C176.029 839 172 843.029 172 848C172 852.971 176.029 857 181 857Z" fill="#1E50A2"/>
<path opacity="0.55" d="M181 856.5C185.694 856.5 189.5 852.694 189.5 848C189.5 843.306 185.694 839.5 181 839.5C176.306 839.5 172.5 843.306 172.5 848C172.5 852.694 176.306 856.5 181 856.5Z" stroke="#707070"/>
</g>
<g opacity="0.1">
<path opacity="0.1" d="M731 1721C868.519 1721 980 1609.52 980 1472C980 1334.48 868.519 1223 731 1223C593.481 1223 482 1334.48 482 1472C482 1609.52 593.481 1721 731 1721Z" fill="#1E50A2"/>
<path opacity="0.1" d="M731 1720.5C868.243 1720.5 979.5 1609.24 979.5 1472C979.5 1334.76 868.243 1223.5 731 1223.5C593.757 1223.5 482.5 1334.76 482.5 1472C482.5 1609.24 593.757 1720.5 731 1720.5Z" stroke="#707070"/>
</g>
<path opacity="0.1" d="M-7 1136C198.45 1136 365 969.45 365 764C365 558.55 198.45 392 -7 392C-212.45 392 -379 558.55 -379 764C-379 969.45 -212.45 1136 -7 1136Z" fill="#1E50A2"/>
<path d="M555.437 586.806V570.206H480.877V557.746H459.887V595.285H380.549V611.89H534.449V639.549H380.549V656.149H555.437V595.289H480.877V586.806H555.437Z" fill="#1E50A2"/>
<path d="M401.539 663.203H380.549V697.828H401.539V663.203Z" fill="#1E50A2"/>
<path d="M452.838 663.203H431.848V697.828H452.838V663.203Z" fill="#1E50A2"/>
<path d="M504.138 663.203H483.148V697.828H504.138V663.203Z" fill="#1E50A2"/>
<path d="M555.437 663.203H534.447V697.828H555.437V663.203Z" fill="#1E50A2"/>
<path d="M356.253 577.125V560.332H326.302V556.125H305.312V560.332H275.362V577.126H305.312V580.947H275.362V597.741H305.312V601.56H233.471V597.741H262.778V580.947H233.471V577.128H262.778V560.332H233.471V556.125H212.48V560.332H180.999V577.126H212.48V580.947H180.999V597.741H212.48V601.56H180.999V618.347H305.312V622.166H212.48V638.96H305.312V642.779H180.999V659.573H326.299V638.964H356.25V622.17H326.302V618.347H356.253V601.557H326.302V597.738H356.253V580.947H326.302V577.128L356.253 577.125Z" fill="#1E50A2"/>
<path d="M201.989 662.801H180.999V697.828H201.989V662.801Z" fill="#1E50A2"/>
<path d="M233.47 662.801H212.48V697.828H326.301V681.035H233.47V662.801Z" fill="#1E50A2"/>
<path d="M356.252 662.801H335.262V697.828H356.252V662.801Z" fill="#1E50A2"/>
<path d="M285.183 662.801H264.193V679.073H285.183V662.801Z" fill="#1E50A2"/>
</g>
<defs>
<clipPath id="clip0">
<rect width="750" height="1685" fill="white"/>
</clipPath>
</defs>
</svg>
